<svg xmlns="http://www.w3.org/2000/svg" width="1242" height="2688" viewBox="0 0 1242 2688" version="1.1"><path d="M 588.874 856.881 C 562.301 868.220, 541.860 895.862, 533.325 932 C 531.370 940.279, 530.735 946.202, 530.324 960 C 529.522 986.967, 533.174 1004.710, 543.958 1026.250 L 549.841 1038 535.170 1038.006 C 517.733 1038.012, 513.648 1038.906, 510.926 1043.311 C 509.076 1046.305, 508.972 1048.111, 509.228 1072.834 L 509.500 1099.167 512.766 1102.084 C 515.826 1104.816, 516.562 1105, 524.457 1105 C 529.091 1105, 533.089 1105.338, 533.342 1105.750 C 533.595 1106.162, 536.595 1126.975, 540.007 1152 C 543.420 1177.025, 546.861 1198.900, 547.654 1200.611 C 548.447 1202.323, 550.221 1204.235, 551.595 1204.861 C 553.377 1205.673, 571.735 1206, 615.597 1206 C 682.719 1206, 681.512 1206.101, 683.841 1200.297 C 684.458 1198.759, 687.788 1176.800, 691.240 1151.500 L 697.518 1105.500 705.009 1104.992 C 719.838 1103.985, 720 1103.601, 720 1069.565 L 720 1043.032 717.083 1039.766 L 714.165 1036.500 664.583 1036.223 C 630.366 1036.031, 615 1036.272, 615 1036.998 C 615 1037.702, 609.783 1037.960, 599.250 1037.775 L 583.500 1037.500 581.287 1026.500 C 577.121 1005.792, 575.718 986.158, 576.283 956.500 C 576.667 936.305, 577.316 926.151, 578.858 916.211 C 582.712 891.363, 588.766 870.753, 595.491 859.585 C 599.501 852.926, 598.808 852.643, 588.874 856.881 M 663.894 1391.061 C 662.461 1391.616, 660.774 1393.201, 660.144 1394.582 C 658.733 1397.681, 658.520 1485.608, 659.916 1489.279 C 661.199 1492.653, 665.923 1494.337, 672.564 1493.786 C 680.633 1493.117, 682.106 1491.269, 682.880 1480.842 L 683.500 1472.500 692.500 1481.069 C 707.766 1495.603, 710.719 1496.942, 716.436 1491.922 C 721.532 1487.448, 724.517 1481.431, 723.141 1478.410 C 722.564 1477.145, 717.347 1472.200, 711.546 1467.421 C 705.746 1462.643, 701 1458.617, 701 1458.475 C 701 1458.333, 704.830 1454.965, 709.510 1450.991 C 714.191 1447.017, 718.288 1442.701, 718.615 1441.399 C 719.768 1436.805, 711.488 1426, 706.815 1426 C 703.350 1426, 698.609 1429.185, 690.829 1436.742 L 683.158 1444.193 682.829 1419.623 C 682.510 1395.822, 682.431 1394.983, 680.289 1392.843 C 677.766 1390.322, 668.422 1389.306, 663.894 1391.061 M 742.315 1391.007 C 739.065 1392.317, 738 1395.137, 738 1402.434 C 738 1411.601, 739.514 1413, 749.427 1413 C 756.260 1413, 757.021 1412.789, 758.927 1410.365 C 760.434 1408.450, 761 1406.278, 761 1402.412 C 761 1395.992, 759.600 1392.594, 756.343 1391.110 C 753.482 1389.807, 745.442 1389.747, 742.315 1391.007 M 396.315 1396.973 C 395.114 1397.476, 393.651 1398.783, 393.065 1399.878 C 392.358 1401.199, 392 1416.488, 392 1445.323 C 392 1486.624, 392.095 1488.895, 393.912 1491.139 L 395.824 1493.500 421.662 1493.500 L 447.500 1493.500 452.819 1490.554 C 461.744 1485.609, 467.328 1477.649, 468.790 1467.783 C 469.909 1460.236, 468.460 1452.353, 464.887 1446.555 L 461.841 1441.611 464.126 1436.731 C 465.799 1433.160, 466.412 1430.042, 466.412 1425.106 C 466.412 1413.711, 460.632 1404.586, 449.722 1398.756 C 445.724 1396.620, 444.251 1396.488, 422 1396.280 C 409.075 1396.159, 397.517 1396.471, 396.315 1396.973 M 415 1445 L 415 1470 427.889 1470 C 443.726 1470, 445.304 1469.207, 445.424 1461.187 C 445.522 1454.569, 443.972 1453.046, 436.408 1452.327 C 433.159 1452.018, 429.542 1451.169, 428.372 1450.440 C 423.755 1447.563, 424.673 1435.835, 429.663 1433.938 C 431.020 1433.422, 433.869 1433, 435.994 1433 C 440.764 1433, 443 1430.920, 443 1426.485 C 443 1420.986, 440.535 1420, 426.777 1420 L 415 1420 415 1445 M 513.045 1422.073 C 501.989 1424.289, 490.801 1432.973, 486.086 1443 C 483.844 1447.769, 483.500 1449.829, 483.500 1458.500 C 483.500 1467.971, 483.679 1468.831, 486.890 1474.752 C 491.009 1482.347, 497.241 1488.284, 504.825 1491.840 C 509.748 1494.148, 511.758 1494.495, 520 1494.464 C 528.379 1494.432, 530.201 1494.089, 535.438 1491.553 C 543.244 1487.772, 549.436 1481.429, 553.226 1473.332 C 555.883 1467.654, 556.296 1465.658, 556.267 1458.631 C 556.213 1445.203, 551.093 1435.288, 540.421 1427.946 C 532.589 1422.557, 521.982 1420.282, 513.045 1422.073 M 600.650 1422.049 C 593.200 1423.299, 585.436 1427.761, 579.435 1434.244 C 563.018 1451.976, 569.035 1480.561, 591.500 1491.555 C 596.856 1494.177, 598.522 1494.492, 607.021 1494.496 C 615.768 1494.500, 617.085 1494.233, 623.218 1491.213 C 630.978 1487.393, 637.046 1481.129, 640.861 1473 C 644.193 1465.900, 644.517 1453.454, 641.590 1445 C 638.960 1437.406, 628.759 1427.148, 621 1424.295 C 614.166 1421.782, 606.974 1420.989, 600.650 1422.049 M 804 1423.309 C 792.947 1426.510, 784.549 1433.217, 779.969 1442.500 C 777.780 1446.937, 777.503 1448.794, 777.501 1459 C 777.500 1469.676, 777.701 1470.882, 780.313 1475.840 C 784.461 1483.716, 790.121 1489.321, 797.253 1492.615 C 803.125 1495.327, 804.280 1495.500, 816.500 1495.500 C 830.568 1495.500, 835.046 1494.515, 840.025 1490.325 C 843.786 1487.161, 844.074 1481.872, 840.750 1476.992 C 837.279 1471.894, 835.813 1471.339, 830.292 1473.031 C 827.647 1473.842, 821.611 1474.500, 816.821 1474.500 C 809.556 1474.500, 807.682 1474.157, 805.321 1472.394 C 803.769 1471.236, 802.355 1469.548, 802.177 1468.644 C 801.887 1467.169, 803.647 1467, 819.279 1467 C 835.777 1467, 836.885 1466.878, 840.102 1464.713 C 844.826 1461.533, 846.468 1457.699, 846.402 1450 C 846.308 1439.011, 839.927 1429.499, 829.582 1424.930 C 823.480 1422.235, 810.542 1421.415, 804 1423.309 M 742.315 1424.007 C 741.114 1424.491, 739.651 1425.783, 739.065 1426.878 C 737.649 1429.525, 737.604 1487.392, 739.017 1490.032 C 741.525 1494.719, 755.385 1494.869, 759.019 1490.249 C 760.891 1487.869, 761 1486.123, 761 1458.447 C 761 1442.341, 760.720 1428.435, 760.379 1427.545 C 758.909 1423.714, 748.233 1421.623, 742.315 1424.007 M 809.209 1444.619 C 805.322 1446.592, 802 1450.517, 802 1453.135 C 802 1454.810, 802.873 1455, 810.566 1455 C 820.585 1455, 823 1454.052, 823 1450.120 C 823 1444.477, 815.432 1441.459, 809.209 1444.619 M 513.367 1446.860 C 508.749 1449.761, 506.995 1452.840, 507.035 1457.973 C 507.078 1463.377, 508.609 1466.444, 512.567 1469.054 C 519.410 1473.565, 529.220 1470.108, 531.969 1462.217 C 534.832 1453.999, 529.727 1446.239, 520.864 1445.335 C 517.673 1445.010, 515.658 1445.420, 513.367 1446.860 M 601.500 1446.403 C 596.967 1448.403, 594.820 1451.421, 594.235 1456.609 C 592.948 1468.023, 604.587 1475.123, 614.088 1468.720 C 618.683 1465.623, 620.164 1462.455, 619.688 1456.740 C 619.242 1451.382, 617.121 1448.410, 612.282 1446.362 C 608.302 1444.677, 605.383 1444.688, 601.500 1446.403 M 368.481 2078.394 C 364.404 2080.170, 359.334 2086.133, 357.990 2090.733 C 357.226 2093.346, 356.983 2113.348, 357.195 2156 C 357.490 2215.410, 357.568 2217.615, 359.500 2220.894 C 360.600 2222.761, 363.229 2225.686, 365.343 2227.394 L 369.186 2230.500 621.500 2230.500 L 873.814 2230.500 877.657 2227.442 C 879.771 2225.760, 882.512 2222.402, 883.750 2219.980 L 886 2215.576 885.978 2154.038 C 885.957 2096.273, 885.843 2092.255, 884.104 2088.500 C 881.949 2083.844, 877.687 2079.576, 873.685 2078.064 C 871.722 2077.322, 795.257 2077.012, 621.185 2077.039 C 417.090 2077.071, 370.949 2077.318, 368.481 2078.394 M 369.450 2080.407 C 365.959 2081.927, 361.252 2087.125, 360.466 2090.327 C 360.173 2091.522, 360.061 2120.930, 360.216 2155.677 C 360.496 2218.012, 360.528 2218.892, 362.594 2221.677 C 363.746 2223.230, 366.446 2225.505, 368.594 2226.734 L 372.500 2228.967 621.282 2228.984 C 829.165 2228.997, 870.601 2228.776, 873.329 2227.636 C 877.491 2225.897, 881.632 2220.986, 882.956 2216.219 C 884.364 2211.148, 884.364 2096.852, 882.956 2091.781 C 882.388 2089.736, 880.762 2086.682, 879.342 2084.995 C 873.873 2078.495, 895.529 2078.996, 621.800 2079.039 C 416.784 2079.071, 371.958 2079.314, 369.450 2080.407 M 524.763 2104.565 C 519.512 2107.414, 517.471 2115.143, 520.449 2120.901 C 522.882 2125.606, 526.842 2127.441, 533.850 2127.111 C 537.431 2126.942, 543 2120.849, 543 2117.100 L 543 2114 537 2114 C 532.333 2114, 531 2114.333, 531 2115.500 C 531 2116.583, 532.111 2117, 535 2117 C 537.889 2117, 539 2117.417, 539 2118.500 C 539 2121.222, 535.189 2124, 531.455 2124 C 524.124 2124, 520.339 2115.911, 524.574 2109.297 C 526.485 2106.312, 532.248 2105.277, 535.413 2107.351 C 537.440 2108.679, 537.995 2108.711, 538.956 2107.553 C 541.982 2103.907, 530.449 2101.480, 524.763 2104.565 M 547 2115 L 547 2127 554 2127 C 559.556 2127, 561 2126.690, 561 2125.500 C 561 2124.367, 559.778 2124, 556 2124 L 551 2124 551 2120.500 C 551 2117.019, 551.024 2117, 555.500 2117 C 559.333 2117, 560 2116.704, 560 2115 C 560 2113.296, 559.333 2113, 555.500 2113 C 551.167 2113, 551 2112.889, 551 2110 C 551 2107.067, 551.111 2107, 556 2107 C 560.333 2107, 561 2106.733, 561 2105 C 561 2103.190, 560.333 2103, 554 2103 L 547 2103 547 2115 M 564 2104.960 C 564 2106.560, 564.647 2107, 567 2107 L 570 2107 570 2117 C 570 2126.333, 570.133 2127, 572 2127 C 573.866 2127, 574 2126.333, 574 2117.063 L 574 2107.127 577.250 2106.813 C 579.333 2106.613, 580.500 2105.961, 580.500 2105 C 580.500 2103.811, 578.788 2103.440, 572.250 2103.210 C 564.517 2102.937, 564 2103.047, 564 2104.960 M 592 2115 C 592 2125, 592.250 2127, 593.500 2127 C 594.750 2127, 595 2125, 595 2115 C 595 2105, 594.750 2103, 593.500 2103 C 592.250 2103, 592 2105, 592 2115 M 598.500 2104 C 597.447 2105.704, 598.985 2107, 602.059 2107 L 605 2107 605 2117 C 605 2126.333, 605.133 2127, 607 2127 C 608.867 2127, 609 2126.333, 609 2117 L 609 2107 612 2107 C 614.333 2107, 615 2106.556, 615 2105 C 615 2103.168, 614.333 2103, 607.059 2103 C 602.691 2103, 598.840 2103.450, 598.500 2104 M 631.388 2103.980 C 624.844 2106.624, 622.719 2117.136, 627.564 2122.894 C 637.153 2134.290, 654.357 2122.261, 647.483 2108.967 C 644.869 2103.913, 637.334 2101.578, 631.388 2103.980 M 653 2114.930 C 653 2126.333, 653.110 2127, 655 2127 C 656.846 2127, 657.002 2126.326, 657.023 2118.250 L 657.046 2109.500 662.619 2118.250 C 666.431 2124.236, 668.793 2127, 670.096 2127 C 671.862 2127, 672 2126.132, 672 2115 C 672 2103.667, 671.889 2103, 670 2103 C 668.153 2103, 668 2103.667, 668 2111.694 L 668 2120.387 662.646 2111.944 C 659.045 2106.264, 656.590 2103.395, 655.146 2103.180 C 653.052 2102.869, 653 2103.154, 653 2114.930 M 631.328 2108.394 C 625.527 2113.384, 629.072 2124, 636.539 2124 C 643.378 2124, 647.639 2117.071, 644.516 2111.030 C 641.771 2105.722, 635.818 2104.532, 631.328 2108.394 M 430.107 2170.420 C 402.947 2197.547, 398.037 2202.877, 399.716 2203.410 C 402.542 2204.307, 402.618 2204.270, 432 2187.741 C 487.613 2156.457, 484.944 2158.072, 485.643 2155.288 C 486.001 2153.859, 485.842 2151.973, 485.289 2151.095 C 484.256 2149.457, 465.295 2138.143, 463.500 2138.094 C 462.950 2138.078, 447.923 2152.625, 430.107 2170.420 M 534.748 2144.427 C 529.217 2146.401, 524.404 2150.457, 521.272 2155.784 C 518.899 2159.821, 518.503 2161.580, 518.523 2168 C 518.551 2176.989, 520.749 2181.917, 527.189 2187.429 C 537.895 2196.594, 554.410 2195.600, 562.924 2185.279 C 566.450 2181.004, 567.986 2176.452, 567.994 2170.250 L 568 2166 556 2166 L 544 2166 544 2169.500 L 544 2173 552.608 2173 L 561.217 2173 560.563 2175.604 C 559.472 2179.952, 557.046 2182.799, 552.601 2184.951 C 541.640 2190.257, 528.828 2184.092, 526.163 2172.228 C 522.683 2156.741, 538.675 2144.682, 553.177 2151.858 C 557.093 2153.795, 557.532 2153.828, 559.200 2152.319 C 562.055 2149.735, 561.361 2148.359, 555.804 2145.589 C 549.869 2142.632, 541.129 2142.149, 534.748 2144.427 M 681 2168.500 L 681 2193 684.500 2193 L 688 2193 688 2168.500 L 688 2144 684.500 2144 L 681 2144 681 2168.500 M 739 2168.500 L 739 2193 742.500 2193 L 746 2193 746 2183.500 L 746 2174 753.266 2174 C 764.911 2174, 770.866 2169.589, 771.729 2160.324 C 772.301 2154.183, 769.381 2149.458, 763.030 2146.250 C 759.315 2144.373, 756.952 2144, 748.788 2144 L 739 2144 739 2168.500 M 776.449 2145.272 C 776.181 2145.971, 776.082 2156.884, 776.231 2169.522 L 776.500 2192.500 779.750 2192.813 L 783 2193.127 783 2168.563 L 783 2144 779.969 2144 C 778.301 2144, 776.718 2144.572, 776.449 2145.272 M 746 2159.613 L 746 2168.226 753.121 2167.823 C 759.406 2167.468, 760.520 2167.096, 762.621 2164.655 C 765.695 2161.080, 765.632 2157.905, 762.411 2154.077 C 759.980 2151.188, 759.401 2151, 752.911 2151 L 746 2151 746 2159.613 M 580.500 2162.356 C 572.029 2166.278, 568.834 2175.633, 572.904 2184.595 C 575.454 2190.210, 580.620 2193.286, 587.500 2193.286 C 603.881 2193.286, 610.021 2173.571, 596.730 2163.648 C 593.373 2161.142, 584.627 2160.446, 580.500 2162.356 M 616.013 2163.275 C 613.476 2164.617, 610.950 2166.969, 609.855 2169.009 C 607.610 2173.196, 607.426 2180.990, 609.480 2184.961 C 612.769 2191.321, 620.967 2194.894, 627.955 2193.012 C 642.509 2189.093, 645.175 2169.721, 632.079 2163.040 C 626.856 2160.376, 621.343 2160.456, 616.013 2163.275 M 653.379 2162.437 C 645.559 2165.840, 641.974 2176.213, 645.863 2184.182 C 649.819 2192.287, 659.870 2195.936, 666.421 2191.644 C 668.963 2189.978, 669 2189.991, 669 2192.527 C 669 2195.808, 666.553 2200.574, 664.455 2201.379 C 661.042 2202.689, 657.058 2201.920, 654.022 2199.365 C 651.338 2197.107, 650.540 2196.889, 648.445 2197.843 C 645.283 2199.284, 645.363 2200.517, 648.842 2203.996 C 654.841 2209.994, 666.366 2209.919, 671.476 2203.847 C 675.206 2199.414, 675.988 2194.894, 675.994 2177.750 L 676 2162 672.500 2162 C 670.575 2162, 669 2162.462, 669 2163.026 C 669 2163.614, 667.741 2163.400, 666.050 2162.526 C 662.442 2160.660, 657.540 2160.626, 653.379 2162.437 M 699.742 2163.224 C 695.416 2165.731, 692 2171.856, 692 2177.104 C 692 2182.040, 695.876 2189.096, 699.837 2191.370 C 706.300 2195.080, 717.479 2193.266, 720.787 2187.969 C 721.715 2186.483, 721.478 2185.888, 719.421 2184.540 C 717.080 2183.006, 716.776 2183.031, 714.331 2184.954 C 710.673 2187.832, 704.982 2187.675, 702.109 2184.617 L 699.870 2182.233 710.929 2177.867 C 717.011 2175.465, 721.988 2173.050, 721.990 2172.500 C 721.991 2171.950, 721.098 2170.033, 720.005 2168.241 C 715.712 2161.200, 706.969 2159.035, 699.742 2163.224 M 794.329 2162.402 C 792.585 2163.192, 790.655 2164.776, 790.041 2165.923 C 789.078 2167.723, 789.280 2168.170, 791.515 2169.189 C 793.640 2170.157, 794.617 2170.066, 796.957 2168.685 C 798.525 2167.758, 800.549 2167, 801.454 2167 C 804.410 2167, 809 2169.993, 809 2171.920 C 809 2173.558, 808.544 2173.687, 805.311 2172.957 C 798.708 2171.468, 791.167 2174.143, 789.085 2178.712 C 787.115 2183.037, 787.772 2186.985, 790.958 2189.961 C 795.816 2194.499, 803.428 2194.637, 808.248 2190.275 C 809.866 2188.811, 810 2188.855, 810 2190.845 C 810 2192.573, 810.595 2193, 813 2193 L 816 2193 815.985 2181.750 C 815.969 2169.597, 815.212 2166.964, 810.791 2163.682 C 807.327 2161.110, 798.672 2160.437, 794.329 2162.402 M 823.691 2176.667 C 829.512 2189.848, 830.046 2191.596, 828.955 2193.917 C 828.288 2195.338, 826.680 2198.863, 825.383 2201.750 L 823.025 2207 826.763 2206.985 L 830.500 2206.970 839.500 2186.315 C 844.450 2174.955, 848.823 2164.836, 849.218 2163.830 C 849.838 2162.249, 849.411 2162, 846.078 2162 L 842.220 2162 837.916 2172.708 L 833.613 2183.417 832.216 2179.958 C 824.632 2161.175, 825.147 2162, 821.013 2162 L 817.214 2162 823.691 2176.667 M 582.888 2168.500 C 577.313 2171.530, 576.615 2180.979, 581.672 2184.957 C 590.003 2191.509, 600.559 2181.782, 595.575 2172.145 C 593.138 2167.433, 587.717 2165.875, 582.888 2168.500 M 620.357 2167.954 C 614.700 2170.337, 613.057 2179.611, 617.452 2184.354 C 619.281 2186.327, 620.878 2187, 623.730 2187 C 628.562 2187, 631.536 2184.935, 632.973 2180.583 C 634.200 2176.865, 632.757 2171.700, 629.810 2169.256 C 627.733 2167.534, 622.927 2166.871, 620.357 2167.954 M 655.784 2168.738 C 647.557 2173.840, 651.086 2187, 660.680 2187 C 668.981 2187, 672.404 2175.756, 665.932 2169.750 C 662.547 2166.609, 659.678 2166.323, 655.784 2168.738 M 704.357 2167.992 C 701.801 2169.023, 699 2172.768, 699 2175.154 C 699 2176.643, 699.981 2176.463, 706.638 2173.752 L 714.275 2170.641 712.027 2168.821 C 709.592 2166.849, 707.696 2166.644, 704.357 2167.992 M 797.223 2179.557 C 792.941 2182.555, 795.045 2187, 800.745 2187 C 806.192 2187, 811.591 2180.208, 807.418 2178.607 C 804.544 2177.504, 799.480 2177.976, 797.223 2179.557" stroke="none" fill="#e9c08c" fill-rule="evenodd"/><path d="M 0 1344.001 L 0 2688.002 621.250 2687.751 L 1242.500 2687.500 1242.750 1343.750 L 1243.001 0 621.500 0 L 0 0 0 1344.001 M 0.499 1344.500 C 0.499 2083.700, 0.612 2385.950, 0.750 2016.167 C 0.888 1646.384, 0.888 1041.584, 0.750 672.167 C 0.612 302.750, 0.499 605.300, 0.499 1344.500 M 588.874 856.881 C 562.301 868.220, 541.860 895.862, 533.325 932 C 531.370 940.279, 530.735 946.202, 530.324 960 C 529.522 986.967, 533.174 1004.710, 543.958 1026.250 L 549.841 1038 535.170 1038.006 C 517.733 1038.012, 513.648 1038.906, 510.926 1043.311 C 509.076 1046.305, 508.972 1048.111, 509.228 1072.834 L 509.500 1099.167 512.766 1102.084 C 515.826 1104.816, 516.562 1105, 524.457 1105 C 529.091 1105, 533.089 1105.338, 533.342 1105.750 C 533.595 1106.162, 536.595 1126.975, 540.007 1152 C 543.420 1177.025, 546.861 1198.900, 547.654 1200.611 C 548.447 1202.323, 550.221 1204.235, 551.595 1204.861 C 553.377 1205.673, 571.735 1206, 615.597 1206 C 682.719 1206, 681.512 1206.101, 683.841 1200.297 C 684.458 1198.759, 687.788 1176.800, 691.240 1151.500 L 697.518 1105.500 705.009 1104.992 C 719.838 1103.985, 720 1103.601, 720 1069.565 L 720 1043.032 717.083 1039.766 L 714.165 1036.500 664.583 1036.223 C 630.366 1036.031, 615 1036.272, 615 1036.998 C 615 1037.702, 609.783 1037.960, 599.250 1037.775 L 583.500 1037.500 581.287 1026.500 C 577.121 1005.792, 575.718 986.158, 576.283 956.500 C 576.667 936.305, 577.316 926.151, 578.858 916.211 C 582.712 891.363, 588.766 870.753, 595.491 859.585 C 599.501 852.926, 598.808 852.643, 588.874 856.881 M 663.894 1391.061 C 662.461 1391.616, 660.774 1393.201, 660.144 1394.582 C 658.733 1397.681, 658.520 1485.608, 659.916 1489.279 C 661.199 1492.653, 665.923 1494.337, 672.564 1493.786 C 680.633 1493.117, 682.106 1491.269, 682.880 1480.842 L 683.500 1472.500 692.500 1481.069 C 707.766 1495.603, 710.719 1496.942, 716.436 1491.922 C 721.532 1487.448, 724.517 1481.431, 723.141 1478.410 C 722.564 1477.145, 717.347 1472.200, 711.546 1467.421 C 705.746 1462.643, 701 1458.617, 701 1458.475 C 701 1458.333, 704.830 1454.965, 709.510 1450.991 C 714.191 1447.017, 718.288 1442.701, 718.615 1441.399 C 719.768 1436.805, 711.488 1426, 706.815 1426 C 703.350 1426, 698.609 1429.185, 690.829 1436.742 L 683.158 1444.193 682.829 1419.623 C 682.510 1395.822, 682.431 1394.983, 680.289 1392.843 C 677.766 1390.322, 668.422 1389.306, 663.894 1391.061 M 742.315 1391.007 C 739.065 1392.317, 738 1395.137, 738 1402.434 C 738 1411.601, 739.514 1413, 749.427 1413 C 756.260 1413, 757.021 1412.789, 758.927 1410.365 C 760.434 1408.450, 761 1406.278, 761 1402.412 C 761 1395.992, 759.600 1392.594, 756.343 1391.110 C 753.482 1389.807, 745.442 1389.747, 742.315 1391.007 M 396.315 1396.973 C 395.114 1397.476, 393.651 1398.783, 393.065 1399.878 C 392.358 1401.199, 392 1416.488, 392 1445.323 C 392 1486.624, 392.095 1488.895, 393.912 1491.139 L 395.824 1493.500 421.662 1493.500 L 447.500 1493.500 452.819 1490.554 C 461.744 1485.609, 467.328 1477.649, 468.790 1467.783 C 469.909 1460.236, 468.460 1452.353, 464.887 1446.555 L 461.841 1441.611 464.126 1436.731 C 465.799 1433.160, 466.412 1430.042, 466.412 1425.106 C 466.412 1413.711, 460.632 1404.586, 449.722 1398.756 C 445.724 1396.620, 444.251 1396.488, 422 1396.280 C 409.075 1396.159, 397.517 1396.471, 396.315 1396.973 M 415 1445 L 415 1470 427.889 1470 C 443.726 1470, 445.304 1469.207, 445.424 1461.187 C 445.522 1454.569, 443.972 1453.046, 436.408 1452.327 C 433.159 1452.018, 429.542 1451.169, 428.372 1450.440 C 423.755 1447.563, 424.673 1435.835, 429.663 1433.938 C 431.020 1433.422, 433.869 1433, 435.994 1433 C 440.764 1433, 443 1430.920, 443 1426.485 C 443 1420.986, 440.535 1420, 426.777 1420 L 415 1420 415 1445 M 513.045 1422.073 C 501.989 1424.289, 490.801 1432.973, 486.086 1443 C 483.844 1447.769, 483.500 1449.829, 483.500 1458.500 C 483.500 1467.971, 483.679 1468.831, 486.890 1474.752 C 491.009 1482.347, 497.241 1488.284, 504.825 1491.840 C 509.748 1494.148, 511.758 1494.495, 520 1494.464 C 528.379 1494.432, 530.201 1494.089, 535.438 1491.553 C 543.244 1487.772, 549.436 1481.429, 553.226 1473.332 C 555.883 1467.654, 556.296 1465.658, 556.267 1458.631 C 556.213 1445.203, 551.093 1435.288, 540.421 1427.946 C 532.589 1422.557, 521.982 1420.282, 513.045 1422.073 M 600.650 1422.049 C 593.200 1423.299, 585.436 1427.761, 579.435 1434.244 C 563.018 1451.976, 569.035 1480.561, 591.500 1491.555 C 596.856 1494.177, 598.522 1494.492, 607.021 1494.496 C 615.768 1494.500, 617.085 1494.233, 623.218 1491.213 C 630.978 1487.393, 637.046 1481.129, 640.861 1473 C 644.193 1465.900, 644.517 1453.454, 641.590 1445 C 638.960 1437.406, 628.759 1427.148, 621 1424.295 C 614.166 1421.782, 606.974 1420.989, 600.650 1422.049 M 804 1423.309 C 792.947 1426.510, 784.549 1433.217, 779.969 1442.500 C 777.780 1446.937, 777.503 1448.794, 777.501 1459 C 777.500 1469.676, 777.701 1470.882, 780.313 1475.840 C 784.461 1483.716, 790.121 1489.321, 797.253 1492.615 C 803.125 1495.327, 804.280 1495.500, 816.500 1495.500 C 830.568 1495.500, 835.046 1494.515, 840.025 1490.325 C 843.786 1487.161, 844.074 1481.872, 840.750 1476.992 C 837.279 1471.894, 835.813 1471.339, 830.292 1473.031 C 827.647 1473.842, 821.611 1474.500, 816.821 1474.500 C 809.556 1474.500, 807.682 1474.157, 805.321 1472.394 C 803.769 1471.236, 802.355 1469.548, 802.177 1468.644 C 801.887 1467.169, 803.647 1467, 819.279 1467 C 835.777 1467, 836.885 1466.878, 840.102 1464.713 C 844.826 1461.533, 846.468 1457.699, 846.402 1450 C 846.308 1439.011, 839.927 1429.499, 829.582 1424.930 C 823.480 1422.235, 810.542 1421.415, 804 1423.309 M 742.315 1424.007 C 741.114 1424.491, 739.651 1425.783, 739.065 1426.878 C 737.649 1429.525, 737.604 1487.392, 739.017 1490.032 C 741.525 1494.719, 755.385 1494.869, 759.019 1490.249 C 760.891 1487.869, 761 1486.123, 761 1458.447 C 761 1442.341, 760.720 1428.435, 760.379 1427.545 C 758.909 1423.714, 748.233 1421.623, 742.315 1424.007 M 809.209 1444.619 C 805.322 1446.592, 802 1450.517, 802 1453.135 C 802 1454.810, 802.873 1455, 810.566 1455 C 820.585 1455, 823 1454.052, 823 1450.120 C 823 1444.477, 815.432 1441.459, 809.209 1444.619 M 513.367 1446.860 C 508.749 1449.761, 506.995 1452.840, 507.035 1457.973 C 507.078 1463.377, 508.609 1466.444, 512.567 1469.054 C 519.410 1473.565, 529.220 1470.108, 531.969 1462.217 C 534.832 1453.999, 529.727 1446.239, 520.864 1445.335 C 517.673 1445.010, 515.658 1445.420, 513.367 1446.860 M 601.500 1446.403 C 596.967 1448.403, 594.820 1451.421, 594.235 1456.609 C 592.948 1468.023, 604.587 1475.123, 614.088 1468.720 C 618.683 1465.623, 620.164 1462.455, 619.688 1456.740 C 619.242 1451.382, 617.121 1448.410, 612.282 1446.362 C 608.302 1444.677, 605.383 1444.688, 601.500 1446.403 M 368.481 2078.394 C 364.404 2080.170, 359.334 2086.133, 357.990 2090.733 C 357.226 2093.346, 356.983 2113.348, 357.195 2156 C 357.490 2215.410, 357.568 2217.615, 359.500 2220.894 C 360.600 2222.761, 363.229 2225.686, 365.343 2227.394 L 369.186 2230.500 621.500 2230.500 L 873.814 2230.500 877.657 2227.442 C 879.771 2225.760, 882.512 2222.402, 883.750 2219.980 L 886 2215.576 885.978 2154.038 C 885.957 2096.273, 885.843 2092.255, 884.104 2088.500 C 881.949 2083.844, 877.687 2079.576, 873.685 2078.064 C 871.722 2077.322, 795.257 2077.012, 621.185 2077.039 C 417.090 2077.071, 370.949 2077.318, 368.481 2078.394 M 369.450 2080.407 C 365.959 2081.927, 361.252 2087.125, 360.466 2090.327 C 360.173 2091.522, 360.061 2120.930, 360.216 2155.677 C 360.496 2218.012, 360.528 2218.892, 362.594 2221.677 C 363.746 2223.230, 366.446 2225.505, 368.594 2226.734 L 372.500 2228.967 621.282 2228.984 C 829.165 2228.997, 870.601 2228.776, 873.329 2227.636 C 877.491 2225.897, 881.632 2220.986, 882.956 2216.219 C 884.364 2211.148, 884.364 2096.852, 882.956 2091.781 C 882.388 2089.736, 880.762 2086.682, 879.342 2084.995 C 873.873 2078.495, 895.529 2078.996, 621.800 2079.039 C 416.784 2079.071, 371.958 2079.314, 369.450 2080.407 M 524.763 2104.565 C 519.512 2107.414, 517.471 2115.143, 520.449 2120.901 C 522.882 2125.606, 526.842 2127.441, 533.850 2127.111 C 537.431 2126.942, 543 2120.849, 543 2117.100 L 543 2114 537 2114 C 532.333 2114, 531 2114.333, 531 2115.500 C 531 2116.583, 532.111 2117, 535 2117 C 537.889 2117, 539 2117.417, 539 2118.500 C 539 2121.222, 535.189 2124, 531.455 2124 C 524.124 2124, 520.339 2115.911, 524.574 2109.297 C 526.485 2106.312, 532.248 2105.277, 535.413 2107.351 C 537.440 2108.679, 537.995 2108.711, 538.956 2107.553 C 541.982 2103.907, 530.449 2101.480, 524.763 2104.565 M 547 2115 L 547 2127 554 2127 C 559.556 2127, 561 2126.690, 561 2125.500 C 561 2124.367, 559.778 2124, 556 2124 L 551 2124 551 2120.500 C 551 2117.019, 551.024 2117, 555.500 2117 C 559.333 2117, 560 2116.704, 560 2115 C 560 2113.296, 559.333 2113, 555.500 2113 C 551.167 2113, 551 2112.889, 551 2110 C 551 2107.067, 551.111 2107, 556 2107 C 560.333 2107, 561 2106.733, 561 2105 C 561 2103.190, 560.333 2103, 554 2103 L 547 2103 547 2115 M 564 2104.960 C 564 2106.560, 564.647 2107, 567 2107 L 570 2107 570 2117 C 570 2126.333, 570.133 2127, 572 2127 C 573.866 2127, 574 2126.333, 574 2117.063 L 574 2107.127 577.250 2106.813 C 579.333 2106.613, 580.500 2105.961, 580.500 2105 C 580.500 2103.811, 578.788 2103.440, 572.250 2103.210 C 564.517 2102.937, 564 2103.047, 564 2104.960 M 592 2115 C 592 2125, 592.250 2127, 593.500 2127 C 594.750 2127, 595 2125, 595 2115 C 595 2105, 594.750 2103, 593.500 2103 C 592.250 2103, 592 2105, 592 2115 M 598.500 2104 C 597.447 2105.704, 598.985 2107, 602.059 2107 L 605 2107 605 2117 C 605 2126.333, 605.133 2127, 607 2127 C 608.867 2127, 609 2126.333, 609 2117 L 609 2107 612 2107 C 614.333 2107, 615 2106.556, 615 2105 C 615 2103.168, 614.333 2103, 607.059 2103 C 602.691 2103, 598.840 2103.450, 598.500 2104 M 631.388 2103.980 C 624.844 2106.624, 622.719 2117.136, 627.564 2122.894 C 637.153 2134.290, 654.357 2122.261, 647.483 2108.967 C 644.869 2103.913, 637.334 2101.578, 631.388 2103.980 M 653 2114.930 C 653 2126.333, 653.110 2127, 655 2127 C 656.846 2127, 657.002 2126.326, 657.023 2118.250 L 657.046 2109.500 662.619 2118.250 C 666.431 2124.236, 668.793 2127, 670.096 2127 C 671.862 2127, 672 2126.132, 672 2115 C 672 2103.667, 671.889 2103, 670 2103 C 668.153 2103, 668 2103.667, 668 2111.694 L 668 2120.387 662.646 2111.944 C 659.045 2106.264, 656.590 2103.395, 655.146 2103.180 C 653.052 2102.869, 653 2103.154, 653 2114.930 M 631.328 2108.394 C 625.527 2113.384, 629.072 2124, 636.539 2124 C 643.378 2124, 647.639 2117.071, 644.516 2111.030 C 641.771 2105.722, 635.818 2104.532, 631.328 2108.394 M 430.107 2170.420 C 402.947 2197.547, 398.037 2202.877, 399.716 2203.410 C 402.542 2204.307, 402.618 2204.270, 432 2187.741 C 487.613 2156.457, 484.944 2158.072, 485.643 2155.288 C 486.001 2153.859, 485.842 2151.973, 485.289 2151.095 C 484.256 2149.457, 465.295 2138.143, 463.500 2138.094 C 462.950 2138.078, 447.923 2152.625, 430.107 2170.420 M 534.748 2144.427 C 529.217 2146.401, 524.404 2150.457, 521.272 2155.784 C 518.899 2159.821, 518.503 2161.580, 518.523 2168 C 518.551 2176.989, 520.749 2181.917, 527.189 2187.429 C 537.895 2196.594, 554.410 2195.600, 562.924 2185.279 C 566.450 2181.004, 567.986 2176.452, 567.994 2170.250 L 568 2166 556 2166 L 544 2166 544 2169.500 L 544 2173 552.608 2173 L 561.217 2173 560.563 2175.604 C 559.472 2179.952, 557.046 2182.799, 552.601 2184.951 C 541.640 2190.257, 528.828 2184.092, 526.163 2172.228 C 522.683 2156.741, 538.675 2144.682, 553.177 2151.858 C 557.093 2153.795, 557.532 2153.828, 559.200 2152.319 C 562.055 2149.735, 561.361 2148.359, 555.804 2145.589 C 549.869 2142.632, 541.129 2142.149, 534.748 2144.427 M 681 2168.500 L 681 2193 684.500 2193 L 688 2193 688 2168.500 L 688 2144 684.500 2144 L 681 2144 681 2168.500 M 739 2168.500 L 739 2193 742.500 2193 L 746 2193 746 2183.500 L 746 2174 753.266 2174 C 764.911 2174, 770.866 2169.589, 771.729 2160.324 C 772.301 2154.183, 769.381 2149.458, 763.030 2146.250 C 759.315 2144.373, 756.952 2144, 748.788 2144 L 739 2144 739 2168.500 M 776.449 2145.272 C 776.181 2145.971, 776.082 2156.884, 776.231 2169.522 L 776.500 2192.500 779.750 2192.813 L 783 2193.127 783 2168.563 L 783 2144 779.969 2144 C 778.301 2144, 776.718 2144.572, 776.449 2145.272 M 746 2159.613 L 746 2168.226 753.121 2167.823 C 759.406 2167.468, 760.520 2167.096, 762.621 2164.655 C 765.695 2161.080, 765.632 2157.905, 762.411 2154.077 C 759.980 2151.188, 759.401 2151, 752.911 2151 L 746 2151 746 2159.613 M 580.500 2162.356 C 572.029 2166.278, 568.834 2175.633, 572.904 2184.595 C 575.454 2190.210, 580.620 2193.286, 587.500 2193.286 C 603.881 2193.286, 610.021 2173.571, 596.730 2163.648 C 593.373 2161.142, 584.627 2160.446, 580.500 2162.356 M 616.013 2163.275 C 613.476 2164.617, 610.950 2166.969, 609.855 2169.009 C 607.610 2173.196, 607.426 2180.990, 609.480 2184.961 C 612.769 2191.321, 620.967 2194.894, 627.955 2193.012 C 642.509 2189.093, 645.175 2169.721, 632.079 2163.040 C 626.856 2160.376, 621.343 2160.456, 616.013 2163.275 M 653.379 2162.437 C 645.559 2165.840, 641.974 2176.213, 645.863 2184.182 C 649.819 2192.287, 659.870 2195.936, 666.421 2191.644 C 668.963 2189.978, 669 2189.991, 669 2192.527 C 669 2195.808, 666.553 2200.574, 664.455 2201.379 C 661.042 2202.689, 657.058 2201.920, 654.022 2199.365 C 651.338 2197.107, 650.540 2196.889, 648.445 2197.843 C 645.283 2199.284, 645.363 2200.517, 648.842 2203.996 C 654.841 2209.994, 666.366 2209.919, 671.476 2203.847 C 675.206 2199.414, 675.988 2194.894, 675.994 2177.750 L 676 2162 672.500 2162 C 670.575 2162, 669 2162.462, 669 2163.026 C 669 2163.614, 667.741 2163.400, 666.050 2162.526 C 662.442 2160.660, 657.540 2160.626, 653.379 2162.437 M 699.742 2163.224 C 695.416 2165.731, 692 2171.856, 692 2177.104 C 692 2182.040, 695.876 2189.096, 699.837 2191.370 C 706.300 2195.080, 717.479 2193.266, 720.787 2187.969 C 721.715 2186.483, 721.478 2185.888, 719.421 2184.540 C 717.080 2183.006, 716.776 2183.031, 714.331 2184.954 C 710.673 2187.832, 704.982 2187.675, 702.109 2184.617 L 699.870 2182.233 710.929 2177.867 C 717.011 2175.465, 721.988 2173.050, 721.990 2172.500 C 721.991 2171.950, 721.098 2170.033, 720.005 2168.241 C 715.712 2161.200, 706.969 2159.035, 699.742 2163.224 M 794.329 2162.402 C 792.585 2163.192, 790.655 2164.776, 790.041 2165.923 C 789.078 2167.723, 789.280 2168.170, 791.515 2169.189 C 793.640 2170.157, 794.617 2170.066, 796.957 2168.685 C 798.525 2167.758, 800.549 2167, 801.454 2167 C 804.410 2167, 809 2169.993, 809 2171.920 C 809 2173.558, 808.544 2173.687, 805.311 2172.957 C 798.708 2171.468, 791.167 2174.143, 789.085 2178.712 C 787.115 2183.037, 787.772 2186.985, 790.958 2189.961 C 795.816 2194.499, 803.428 2194.637, 808.248 2190.275 C 809.866 2188.811, 810 2188.855, 810 2190.845 C 810 2192.573, 810.595 2193, 813 2193 L 816 2193 815.985 2181.750 C 815.969 2169.597, 815.212 2166.964, 810.791 2163.682 C 807.327 2161.110, 798.672 2160.437, 794.329 2162.402 M 823.691 2176.667 C 829.512 2189.848, 830.046 2191.596, 828.955 2193.917 C 828.288 2195.338, 826.680 2198.863, 825.383 2201.750 L 823.025 2207 826.763 2206.985 L 830.500 2206.970 839.500 2186.315 C 844.450 2174.955, 848.823 2164.836, 849.218 2163.830 C 849.838 2162.249, 849.411 2162, 846.078 2162 L 842.220 2162 837.916 2172.708 L 833.613 2183.417 832.216 2179.958 C 824.632 2161.175, 825.147 2162, 821.013 2162 L 817.214 2162 823.691 2176.667 M 582.888 2168.500 C 577.313 2171.530, 576.615 2180.979, 581.672 2184.957 C 590.003 2191.509, 600.559 2181.782, 595.575 2172.145 C 593.138 2167.433, 587.717 2165.875, 582.888 2168.500 M 620.357 2167.954 C 614.700 2170.337, 613.057 2179.611, 617.452 2184.354 C 619.281 2186.327, 620.878 2187, 623.730 2187 C 628.562 2187, 631.536 2184.935, 632.973 2180.583 C 634.200 2176.865, 632.757 2171.700, 629.810 2169.256 C 627.733 2167.534, 622.927 2166.871, 620.357 2167.954 M 655.784 2168.738 C 647.557 2173.840, 651.086 2187, 660.680 2187 C 668.981 2187, 672.404 2175.756, 665.932 2169.750 C 662.547 2166.609, 659.678 2166.323, 655.784 2168.738 M 704.357 2167.992 C 701.801 2169.023, 699 2172.768, 699 2175.154 C 699 2176.643, 699.981 2176.463, 706.638 2173.752 L 714.275 2170.641 712.027 2168.821 C 709.592 2166.849, 707.696 2166.644, 704.357 2167.992 M 797.223 2179.557 C 792.941 2182.555, 795.045 2187, 800.745 2187 C 806.192 2187, 811.591 2180.208, 807.418 2178.607 C 804.544 2177.504, 799.480 2177.976, 797.223 2179.557" stroke="none" fill="#4a977c" fill-rule="evenodd"/></svg>